<svg xmlns="http://www.w3.org/2000/svg" viewBox="0 0 32 32" width="32" height="32">
  <!-- Background circle -->
  <circle cx="16" cy="16" r="16" fill="#FFB6C1"/>
  
  <!-- Cat ears -->
  <path d="M8 10 L12 6 L16 10 Z" fill="#FF8C69"/>
  <path d="M16 10 L20 6 L24 10 Z" fill="#FF8C69"/>
  
  <!-- Cat head -->
  <circle cx="16" cy="16" r="8" fill="#FF8C69"/>
  
  <!-- Inner ears -->
  <path d="M9.5 9 L11.5 7.5 L13.5 9 Z" fill="#FF6347"/>
  <path d="M18.5 9 L20.5 7.5 L22.5 9 Z" fill="#FF6347"/>
  
  <!-- Cat eyes -->
  <ellipse cx="13" cy="14" rx="1.5" ry="2" fill="#2F4F4F"/>
  <ellipse cx="19" cy="14" rx="1.5" ry="2" fill="#2F4F4F"/>
  
  <!-- Eye highlights -->
  <ellipse cx="13.5" cy="13.5" rx="0.5" ry="0.8" fill="#FFF"/>
  <ellipse cx="19.5" cy="13.5" rx="0.5" ry="0.8" fill="#FFF"/>
  
  <!-- Cat nose -->
  <path d="M16 16 L15 17 L17 17 Z" fill="#FF69B4"/>
  
  <!-- Cat mouth -->
  <path d="M16 17.5 Q14 19 12 18" stroke="#2F4F4F" stroke-width="1" fill="none"/>
  <path d="M16 17.5 Q18 19 20 18" stroke="#2F4F4F" stroke-width="1" fill="none"/>
  
  <!-- Whiskers -->
  <line x1="8" y1="16" x2="11" y2="15.5" stroke="#2F4F4F" stroke-width="0.8"/>
  <line x1="8" y1="17" x2="11" y2="17" stroke="#2F4F4F" stroke-width="0.8"/>
  <line x1="21" y1="15.5" x2="24" y2="16" stroke="#2F4F4F" stroke-width="0.8"/>
  <line x1="21" y1="17" x2="24" y2="17" stroke="#2F4F4F" stroke-width="0.8"/>
</svg>